<svg width="17" height="17" viewBox="0 0 17 17" fill="none" xmlns="http://www.w3.org/2000/svg">
<g id="bx:copyright">
<path id="Vector" d="M8.50008 15.5833C12.34 15.5833 15.5834 12.3398 15.5834 8.49996C15.5834 4.66008 12.34 1.41663 8.50008 1.41663C4.66021 1.41663 1.41675 4.66008 1.41675 8.49996C1.41675 12.3398 4.66021 15.5833 8.50008 15.5833ZM8.50008 2.83329C11.5721 2.83329 14.1667 5.42792 14.1667 8.49996C14.1667 11.572 11.5721 14.1666 8.50008 14.1666C5.42804 14.1666 2.83341 11.572 2.83341 8.49996C2.83341 5.42792 5.42804 2.83329 8.50008 2.83329Z" fill="#ACACAD"/>
<path id="Vector_2" d="M8.49992 12.0417C9.13813 12.0417 10.3281 11.9227 11.1257 11.1265L10.1241 10.1235C9.81034 10.4373 9.20259 10.625 8.49992 10.625C7.34817 10.625 6.37492 9.65179 6.37492 8.50004C6.37492 7.34829 7.34817 6.37504 8.49992 6.37504C9.20329 6.37504 9.81104 6.56275 10.1241 6.87583L11.1257 5.87425C10.3288 5.07737 9.13813 4.95837 8.49992 4.95837C6.54704 4.95837 4.95825 6.54717 4.95825 8.50004C4.95825 10.4529 6.54704 12.0417 8.49992 12.0417Z" fill="#ACACAD"/>
</g>
</svg>
