<svg width="38" height="38" viewBox="0 0 38 38" fill="none" xmlns="http://www.w3.org/2000/svg">
<path id="Vector" d="M36.48 0H1.52C0.67925 0 0 0.67925 0 1.52V36.48C0 37.3208 0.67925 38 1.52 38H36.48C37.3208 38 38 37.3208 38 36.48V1.52C38 0.67925 37.3208 0 36.48 0ZM32.091 11.0912H29.0557C26.676 11.0912 26.2153 12.2217 26.2153 13.8842V17.5465H31.8962L31.1553 23.2797H26.2153V38H20.292V23.2845H15.3377V17.5465H20.292V13.319C20.292 8.41225 23.2892 5.738 27.6687 5.738C29.7682 5.738 31.5685 5.89475 32.0957 5.966V11.0912H32.091Z" fill="white"/>
</svg>
