<svg width="38" height="38" viewBox="0 0 38 38" fill="none" xmlns="http://www.w3.org/2000/svg">
<path id="Vector" d="M18.9949 12.664C15.5061 12.664 12.659 15.5111 12.659 19C12.659 22.4889 15.5061 25.336 18.9949 25.336C22.4837 25.336 25.3308 22.4889 25.3308 19C25.3308 15.5111 22.4837 12.664 18.9949 12.664ZM37.9979 19C37.9979 16.3762 38.0216 13.7762 37.8743 11.1572C37.727 8.11515 37.033 5.41532 34.8085 3.19082C32.5793 0.961562 29.8843 0.272347 26.8423 0.124997C24.2186 -0.0223523 21.6186 0.00141381 18.9996 0.00141381C16.3759 0.00141381 13.776 -0.0223523 11.157 0.124997C8.115 0.272347 5.41522 0.966315 3.19076 3.19082C0.961545 5.42007 0.272342 8.11515 0.124995 11.1572C-0.0223519 13.781 0.00141379 16.381 0.00141379 19C0.00141379 21.619 -0.0223519 24.2238 0.124995 26.8428C0.272342 29.8849 0.966298 32.5847 3.19076 34.8092C5.41997 37.0384 8.115 37.7277 11.157 37.875C13.7807 38.0224 16.3807 37.9986 18.9996 37.9986C21.6234 37.9986 24.2233 38.0224 26.8423 37.875C29.8843 37.7277 32.5841 37.0337 34.8085 34.8092C37.0378 32.5799 37.727 29.8849 37.8743 26.8428C38.0264 24.2238 37.9979 21.6238 37.9979 19ZM18.9949 28.7488C13.6001 28.7488 9.24624 24.3949 9.24624 19C9.24624 13.6051 13.6001 9.25116 18.9949 9.25116C24.3897 9.25116 28.7435 13.6051 28.7435 19C28.7435 24.3949 24.3897 28.7488 18.9949 28.7488ZM29.1428 11.1287C27.8832 11.1287 26.8661 10.1115 26.8661 8.85189C26.8661 7.59229 27.8832 6.57511 29.1428 6.57511C30.4024 6.57511 31.4196 7.59229 31.4196 8.85189C31.4199 9.15099 31.3613 9.44722 31.247 9.72363C31.1327 10 30.965 10.2512 30.7535 10.4627C30.5421 10.6742 30.2909 10.8419 30.0145 10.9561C29.7381 11.0704 29.4419 11.1291 29.1428 11.1287Z" fill="white"/>
</svg>
